<!DOCTYPE svg PUBLIC "-//W3C//DTD SVG 1.1//EN" "http://www.w3.org/Graphics/SVG/1.1/DTD/svg11.dtd">
<svg width="256px" height="256px" viewBox="-1.08 -1.08 38.16 38.16" xmlns="http://www.w3.org/2000/svg" xmlns:xlink="http://www.w3.org/1999/xlink" aria-hidden="true" role="img" class="iconify iconify--twemoji" preserveAspectRatio="xMidYMid meet" fill="#000000" stroke="#000000" transform="matrix(1, 0, 0, 1, 0, 0)rotate(0)" stroke-width="0.46799999999999997"><g id="SVGRepo_bgCarrier" stroke-width="0" transform="translate(0,0), scale(1)"/><g id="SVGRepo_tracerCarrier" stroke-linecap="round" stroke-linejoin="round" stroke="#ffffff" stroke-width="0.576"/><g id="SVGRepo_iconCarrier"><path fill="#ff9500" d="M3 19.5C3 10.388 10.387 3 19.499 3c9.113 0 16.5 7.387 16.5 16.5S28.612 36 19.499 36C10.387 36 3 28.613 3 19.5z"/><path fill="#9f511d" d="M11.414 7.585c-.267-.267-.797-.197-1.355.12c-3.3-2.732-8.653-3.652-8.895-3.692a1 1 0 0 0-.329 1.972c.053.009 4.934.854 7.821 3.16c-.275.525-.324 1.015-.07 1.268c.39.391 1.34.074 2.121-.707c.781-.78 1.097-1.73.707-2.121z"/><path fill="#1a8945" d="M21 1s-3.106 4.318-7.021 5.273C11 7 7.041 7.07 6.646 6.15c-.394-.919 1.572-3.937 4.969-5.393C15.012-.698 21 1 21 1z"/></g></svg>